<svg width="65" height="36" viewBox="0 0 65 36" fill="none" xmlns="http://www.w3.org/2000/svg">
<g clip-path="url(#clip0_1458_20951)">
<path d="M44.2987 13.0555C43.1632 13.0555 42.2875 13.4606 41.4751 14.306V13.2525H39.245V23.6186H41.6445V17.6065C41.6445 16.2302 42.4633 15.3595 43.7057 15.3595C43.9314 15.3595 44.1293 15.3874 44.2703 15.4153L45.9357 13.2241C45.2864 13.1119 44.7218 13.0555 44.2982 13.0555H44.2987ZM64.9918 13.2525H62.225L59.6703 16.6336L57.1155 13.252H54.3487L58.2522 18.4756L54.3487 23.6186H57.1719L59.6561 20.3392L62.1403 23.6186H64.9918L61.0621 18.4841L64.9918 13.2525ZM14.5996 10.9207C13.7808 12.0163 13.5829 12.3813 12.7926 12.3813H0.991821V26.4277H5.62192C6.66644 26.4277 7.68255 25.922 8.33189 25.0793C9.17909 23.9558 9.29169 23.6186 10.1105 23.6186H21.9396V9.57227H17.2811C16.2366 9.57227 15.2205 10.0779 14.599 10.9207H14.5996ZM18.2693 19.9947H13.3288C12.2558 19.9947 11.2681 20.444 10.6188 21.3147C9.7716 22.4388 9.60216 22.7759 8.81179 22.7759H4.6337V16.0337H9.57427C10.6467 16.0337 11.6349 15.528 12.2842 14.6853C13.1314 13.5897 13.3572 13.2525 14.1191 13.2525H18.2693V19.9947ZM35.9983 16.5394C37.0434 15.9494 37.7769 14.9096 37.7769 13.5333C37.7769 11.5106 36.2246 9.57227 33.9661 9.57227H27.1906V23.6186H33.9661C36.4219 23.6186 38.1158 21.8767 38.1158 19.6855C38.1158 18.3935 37.5233 17.2694 35.9983 16.5394ZM29.5902 11.7635H33.7682C34.8128 11.7635 35.4337 12.7469 35.4337 13.6176C35.4337 14.6853 34.5023 15.4153 33.6272 15.4153H29.5902V11.7635ZM33.6272 21.4274H29.5902V17.6065H33.7682C34.8412 17.6065 35.7163 18.5336 35.7163 19.4891C35.7163 20.5562 34.6154 21.4274 33.6272 21.4274Z" fill="#272A2E"></path>
<path d="M51.9493 20.6765C51.5541 21.2949 50.7916 21.6599 49.9444 21.6599C48.6184 21.6599 47.517 20.7608 47.517 19.3845H54.6877C54.8008 18.9631 54.8287 18.7666 54.8287 18.401C54.8287 15.2549 52.8807 13.0916 49.9449 13.0916C47.065 13.0916 45.0328 15.1427 45.0328 18.4853C45.0328 21.7442 46.9803 23.8512 50.0013 23.8512C52.1187 23.8512 53.982 22.8119 54.5182 20.6765H51.9493ZM49.9444 15.2828C51.2715 15.2828 52.2882 16.1256 52.2597 17.3897H47.5449C47.5449 16.154 48.6184 15.2828 49.9444 15.2828Z" fill="#272A2E"></path>
</g>
<defs>
<clipPath id="clip0_1458_20951">
<rect width="64" height="36" fill="white" transform="translate(0.991821)"></rect>
</clipPath>
</defs>
</svg>
