<svg width="121" height="41" viewBox="0 0 121 41" fill="none" xmlns="http://www.w3.org/2000/svg">
<g clip-path="url(#clip0_291_8728)">
<path d="M121.871 33.554C121.294 33.554 120.835 33.0952 120.835 32.5176C120.835 31.9569 121.294 31.4812 121.871 31.4812C122.431 31.4812 122.906 31.9399 122.906 32.5176C122.906 33.0783 122.431 33.554 121.871 33.554ZM121.871 31.6851C121.413 31.6851 121.039 32.0589 121.039 32.5176C121.039 32.9763 121.413 33.3501 121.871 33.3501C122.329 33.3501 122.702 32.9763 122.702 32.5176C122.702 32.0589 122.329 31.6851 121.871 31.6851ZM122.397 33.0613H122.159L121.956 32.6705H121.684V33.0613H121.463V31.9229H122.007C122.244 31.9229 122.397 32.0758 122.397 32.2967C122.397 32.4666 122.295 32.5855 122.159 32.6365L122.397 33.0613ZM121.99 32.4666C122.074 32.4666 122.159 32.4156 122.159 32.2967C122.159 32.1608 122.091 32.1268 121.99 32.1268H121.65V32.4666H121.99Z" fill="#272A2E"></path>
<path d="M14.0066 31.3789H16.6544V38.5997H21.2541V40.9103H14.0066V31.3789Z" fill="#272A2E"></path>
<path d="M23.9863 36.1704V36.1364C23.9863 33.401 26.1928 31.1753 29.1292 31.1753C32.0655 31.1753 34.2381 33.367 34.2381 36.1024V36.1364C34.2381 38.8718 32.0316 41.0975 29.0952 41.0975C26.1589 41.0975 23.9863 38.9058 23.9863 36.1704ZM31.5563 36.1704V36.1364C31.5563 34.7602 30.5719 33.5709 29.1122 33.5709C27.6695 33.5709 26.702 34.7432 26.702 36.1194V36.1534C26.702 37.5296 27.6865 38.7189 29.1292 38.7189C30.5889 38.7189 31.5563 37.5466 31.5563 36.1704Z" fill="#272A2E"></path>
<path d="M37.48 36.731V31.3792H40.1617V36.68C40.1617 38.0562 40.8576 38.7019 41.91 38.7019C42.9623 38.7019 43.6582 38.0732 43.6582 36.748V31.3792H46.3399V36.663C46.3399 39.7382 44.5917 41.0805 41.876 41.0805C39.1773 41.0805 37.48 39.7213 37.48 36.731Z" fill="#272A2E"></path>
<path d="M50.3796 31.3792H54.0458C57.4405 31.3792 59.4263 33.333 59.4263 36.0854V36.1194C59.4263 38.8718 57.4235 40.9106 53.9949 40.9106H50.3796V31.3792ZM54.0968 38.5659C55.6753 38.5659 56.7276 37.6994 56.7276 36.1533V36.1194C56.7276 34.5903 55.6753 33.7068 54.0968 33.7068H53.0274V38.5489H54.0968V38.5659Z" fill="#272A2E"></path>
<path d="M63.2629 31.3789H70.8839V33.6896H65.8938V35.3206H70.4086V37.5123H65.8938V40.9103H63.2629V31.3789Z" fill="#272A2E"></path>
<path d="M74.5496 31.3792H77.1804V38.5999H81.7971V40.9106H74.5496V31.3792Z" fill="#272A2E"></path>
<path d="M88.688 31.3113H91.234L95.2906 40.9106H92.4561L91.7602 39.2116H88.094L87.4151 40.9106H84.6484L88.688 31.3113ZM91.0134 37.1558L89.961 34.4544L88.8917 37.1558H91.0134Z" fill="#272A2E"></path>
<path d="M98.6853 31.3792H103.183C104.643 31.3792 105.644 31.7529 106.289 32.4155C106.849 32.9592 107.138 33.6898 107.138 34.6412V34.6752C107.138 36.1364 106.357 37.1048 105.186 37.5975L107.46 40.9275H104.405L102.487 38.0392H101.333V40.9275H98.6853V31.3792ZM103.064 35.9495C103.964 35.9495 104.473 35.5077 104.473 34.8281V34.7941C104.473 34.0466 103.93 33.6728 103.047 33.6728H101.316V35.9495H103.064Z" fill="#272A2E"></path>
<path d="M110.94 31.3792H118.595V33.6218H113.554V35.066H118.12V37.1558H113.554V38.6679H118.663V40.9106H110.94V31.3792Z" fill="#272A2E"></path>
<path d="M8.23558 37.2916C7.86217 38.1241 7.08141 38.7187 6.06302 38.7187C4.62031 38.7187 3.63587 37.5124 3.63587 36.1532V36.1193C3.63587 34.7431 4.60333 33.5707 6.04605 33.5707C7.13233 33.5707 7.96401 34.2334 8.30348 35.1508H11.0871C10.6458 32.8742 8.64294 31.1921 6.06302 31.1921C3.12667 31.1921 0.920166 33.4178 0.920166 36.1532V36.1872C0.920166 38.9226 3.09273 41.1143 6.02908 41.1143C8.5411 41.1143 10.51 39.4833 11.0192 37.3086L8.23558 37.2916Z" fill="#272A2E"></path>
<path d="M115.471 16.1732L108.19 11.9936L106.934 11.45L77.146 11.6538V26.7919H115.471V16.1732Z" fill="white"></path>
<path d="M102.216 25.3987C102.572 24.1754 102.436 23.0541 101.842 22.2216C101.299 21.457 100.383 21.0153 99.2795 20.9643L78.3855 20.6925C78.2498 20.6925 78.1309 20.6245 78.0631 20.5226C77.9952 20.4206 77.9782 20.2847 78.0121 20.1488C78.08 19.9449 78.2837 19.792 78.5043 19.775L99.585 19.5032C102.08 19.3842 104.796 17.3624 105.746 14.8819L106.951 11.7387C107.002 11.6028 107.019 11.4669 106.985 11.331C105.627 5.18057 100.145 0.593262 93.5935 0.593262C87.551 0.593262 82.4251 4.50097 80.5921 9.92079C79.4039 9.03731 77.8933 8.56158 76.2639 8.71449C73.3615 9.00332 71.0362 11.331 70.7476 14.2363C70.6797 14.9838 70.7307 15.7144 70.9004 16.394C66.1649 16.5299 62.3799 20.4036 62.3799 25.1778C62.3799 25.6026 62.4138 26.0273 62.4647 26.4521C62.4987 26.656 62.6684 26.8089 62.8721 26.8089H101.435C101.656 26.8089 101.859 26.656 101.927 26.4351L102.216 25.3987Z" fill="#272A2E"></path>
<path d="M108.869 11.9595C108.683 11.9595 108.479 11.9595 108.292 11.9765C108.157 11.9765 108.038 12.0784 107.987 12.2143L107.172 15.0517C106.816 16.2749 106.951 17.3963 107.546 18.2288C108.089 18.9933 109.005 19.4351 110.108 19.4861L114.555 19.7579C114.691 19.7579 114.81 19.8259 114.878 19.9278C114.946 20.0297 114.963 20.1826 114.929 20.3016C114.861 20.5055 114.657 20.6584 114.437 20.6754L109.803 20.9472C107.291 21.0661 104.592 23.0879 103.642 25.5685L103.302 26.435C103.234 26.6049 103.353 26.7748 103.54 26.7748H119.461C119.647 26.7748 119.817 26.6558 119.868 26.469C120.14 25.4835 120.292 24.4471 120.292 23.3768C120.292 17.0905 115.166 11.9595 108.869 11.9595Z" fill="#6E7683"></path>
</g>
<defs>
<clipPath id="clip0_291_8728">
<rect width="120" height="40.2664" fill="white" transform="translate(0.920166 0.610107)"></rect>
</clipPath>
</defs>
</svg>
