<svg width="160" height="36" viewBox="0 0 160 36" fill="none" xmlns="http://www.w3.org/2000/svg">
<g clip-path="url(#clip0_1458_20902)">
<path d="M82.7579 5.91095L82.3746 4.86077L82.5902 3L77.8472 6.93718L77.9111 7.04499L82.7579 5.91095ZM12.056 24.339C11.2006 25.1777 10.0595 25.6614 8.86203 25.6927C5.12113 25.6727 4.21884 22.3904 4.21884 18.4732C4.21884 14.556 5.06523 11.2537 8.80215 11.2537C9.36859 11.2543 9.92893 11.3708 10.4487 11.596C10.9684 11.8212 11.4366 12.1505 11.8244 12.5634L13.8925 15.8457H14.0841V10.9862H13.8925L11.9881 11.9804C11.0888 11.2326 9.96335 10.8105 8.79416 10.7825C5.14508 10.7865 0.83725 13.5817 0.83725 18.4732C0.83725 23.3647 5.06523 26.1599 8.82211 26.1599C10.0565 26.1112 11.2423 25.6659 12.2037 24.8901L14.0841 25.9482H14.2758V20.889H14.0841L12.056 24.339ZM25.9616 10.7865C22.3964 10.7865 18.2043 13.7813 18.2043 18.4732C18.2043 23.165 22.3964 26.1599 25.9616 26.1599C29.5268 26.1599 33.7109 23.1531 33.7109 18.4732C33.7109 13.7933 29.5069 10.7865 25.9616 10.7865ZM25.9616 25.6727C22.3924 25.6727 21.526 22.602 21.526 18.4852C21.526 14.3683 22.3924 11.2976 25.9616 11.2976C29.5308 11.2976 30.3812 14.3443 30.3812 18.4732C30.3812 22.602 29.5268 25.6727 25.9616 25.6727ZM47.1015 11.4454H48.8742V20.7053L42.3066 11.062H36.3499V11.4454H38.1066V25.501H36.3499V25.8843H40.5539V25.501H38.7733V11.4653L49.3612 26.1599H49.5409V11.4454H51.3056V11.062H47.1015V11.4454ZM61.1908 11.062H54.5354V11.4613H56.4358V25.517H54.5354V25.9163H61.1908C64.3848 25.9163 69.9742 24.4987 69.9742 18.4213C69.9742 12.3438 64.3808 11.062 61.1908 11.062ZM61.067 25.501H59.4381V11.4414H61.067C64.9118 11.4414 66.6844 14.2765 66.6844 18.4692C66.6844 22.6619 64.9078 25.501 61.067 25.501ZM83.0813 25.501H77.4919V18.1138H80.2866C81.2168 18.8525 82.2309 20.9928 82.2309 20.9928H82.4226V14.8515H82.2309C82.2309 14.8515 81.2208 16.9758 80.2866 17.7305H77.4919V11.4414H82.5024C83.9596 12.3957 85.1614 15.0351 85.1614 15.0351H85.353V11.0421H72.5772V11.4414H74.4776V25.497H72.5812V25.8963H85.7562V20.905H85.5686C85.5686 20.905 84.3709 24.0835 83.0813 25.501ZM119.624 10.5509H119.412L113.092 25.497H111.368V25.8963H115.36V25.497H113.675L115.939 20.1223H120.73L123.181 25.501H121.261V25.9003H128.196V25.501H126.419L119.624 10.5509ZM116.111 19.735L118.267 14.5799L120.554 19.723L116.111 19.735ZM145.291 11.062V15.6541H145.463C145.463 15.6541 146.792 12.8589 148.082 11.4454H150.661V25.501H148.338V25.9003H155.983V25.501H153.659V11.4414H156.235C157.524 12.8549 158.854 15.6501 158.854 15.6501H159.021V11.062H145.291ZM105.842 11.4454H107.615V20.7053L101.047 11.062H95.0905V11.4454H96.8472V25.501H95.0905V25.8843H99.2906V25.501H97.5139V11.4653L108.102 26.1599H108.282V11.4454H110.046V11.062H105.842V11.4454ZM138.576 17.1834L135.662 16.1772C134.204 15.69 133.019 14.9792 133.019 13.5737C133.019 12.1122 134.284 11.2257 136.213 11.2257C136.7 11.188 137.19 11.2594 137.647 11.4349C138.103 11.6103 138.515 11.8854 138.852 12.24L140.924 15.5023H141.095V10.8065H140.924L139.023 11.7848C138.244 11.1254 137.249 10.7782 136.229 10.8105C133.434 10.8105 131.557 12.6513 131.537 15.2348C131.557 17.3312 133.015 18.4293 134.683 19.0282L137.662 20.1063C139.227 20.6774 140.301 21.3602 140.301 22.9215C140.301 24.2552 139.331 25.7166 136.752 25.7366C135.586 25.6967 134.192 25.2734 133.37 24.4668L131.194 20.8251H131.002L131.106 25.9482H131.294L133.198 24.91C134.234 25.6766 135.476 26.1123 136.764 26.1599C139.997 26.1599 142.105 23.8758 142.105 21.3682C142.105 18.8605 140.417 17.7984 138.576 17.1834ZM70.7048 31.5026C70.8199 31.4472 70.9166 31.3597 70.9832 31.2506C71.0498 31.1415 71.0834 31.0154 71.0801 30.8877C71.0823 30.798 71.066 30.7089 71.0324 30.6258C70.9987 30.5427 70.9484 30.4673 70.8844 30.4045C70.7827 30.3154 70.6644 30.2474 70.5362 30.2042C70.4081 30.161 70.2727 30.1436 70.1378 30.1529H68.8164V33H70.1698C70.8126 33 71.2358 32.7404 71.2358 32.2014C71.2412 32.0416 71.1913 31.8848 71.0946 31.7575C70.9978 31.6302 70.8602 31.5402 70.7048 31.5026ZM69.4272 30.704H70.046C70.3095 30.704 70.4453 30.8078 70.4453 30.9955C70.4453 31.2071 70.2696 31.295 69.9941 31.295H69.4152L69.4272 30.704ZM70.6249 32.1455C70.6249 32.3571 70.4572 32.4529 70.1818 32.4529H69.4352V31.8141H70.1578C70.4812 31.8141 70.6209 31.9299 70.6209 32.1215L70.6249 32.1455ZM74.6134 31.0913C74.6182 30.9721 74.5992 30.853 74.5574 30.7412C74.5155 30.6295 74.4518 30.5272 74.3698 30.4404C74.2575 30.3397 74.1262 30.2623 73.9836 30.213C73.841 30.1636 73.69 30.1432 73.5394 30.1529H72.2379V33H72.8647V32.0776H73.3557L73.9666 32.988H74.6972L74.0025 31.9698C74.1861 31.9099 74.3451 31.7917 74.4554 31.6331C74.5657 31.4746 74.6211 31.2843 74.6134 31.0913ZM73.9786 31.1233C73.9786 31.3628 73.8029 31.5226 73.4995 31.5226H72.8607V30.7239H73.4995C73.8029 30.7239 73.9905 30.8637 73.9905 31.1233H73.9786ZM75.6953 30.141H76.3221V32.988H75.6953V30.141ZM77.3202 30.72H78.1866V32.992H78.8134V30.72H79.6797V30.141H77.3202V30.72ZM81.2568 30.121L80.0351 32.992H80.6858L80.9454 32.3531H82.1431L82.4026 32.992H83.0574L81.8357 30.121H81.2568ZM81.1569 31.7981L81.5362 30.8757L81.9155 31.7981H81.1569ZM84.0115 30.141H84.6383V32.988H84.0115V30.141ZM87.7485 31.8939L86.411 30.141H85.8361V32.992H86.4509V31.1792L87.8323 32.992H88.3673V30.141H87.7485V31.8939Z" fill="#272A2E"></path>
</g>
<defs>
<clipPath id="clip0_1458_20902">
<rect width="158.184" height="36" fill="white" transform="translate(0.83725)"></rect>
</clipPath>
</defs>
</svg>
