<svg xmlns="http://www.w3.org/2000/svg"  viewBox="0 0 100 100" width="200px" height="200px"><circle cx="77" cy="13" r="1" fill="#f1bc19"/><circle cx="50" cy="50" r="37" fill="#e4e4f9"/><circle cx="83" cy="15" r="4" fill="#f1bc19"/><circle cx="87" cy="24" r="2" fill="#8889b9"/><circle cx="81" cy="76" r="2" fill="#fbcd59"/><circle cx="15" cy="63" r="4" fill="#fbcd59"/><circle cx="25" cy="87" r="2" fill="#8889b9"/><circle cx="18.5" cy="51.5" r="2.5" fill="#fff"/><circle cx="79.5" cy="33.5" r="1.5" fill="#fff"/><path fill="#f45834" d="M28.005,65.001l-0.004-30c0-3.866,3.134-7.001,7-7.001H65c3.866,0,7,3.134,7,7v30 c0,3.866-3.134,7-7,7H35.005C31.139,72,28.005,68.867,28.005,65.001z"/><path fill="#472b29" d="M65,28.4c3.639,0,6.6,2.961,6.6,6.6v30c0,3.639-2.961,6.6-6.6,6.6H35c-3.639,0-6.6-2.961-6.6-6.6V35 c0-3.639,2.961-6.6,6.6-6.6H65 M65,27H35c-4.418,0-8,3.582-8,8v30c0,4.418,3.582,8,8,8h30c4.418,0,8-3.582,8-8V35 C73,30.582,69.418,27,65,27L65,27z"/><path fill="#472b29" d="M30.5,57c-0.276,0-0.5-0.224-0.5-0.5v-14c0-0.276,0.224-0.5,0.5-0.5s0.5,0.224,0.5,0.5v14 C31,56.776,30.776,57,30.5,57z"/><path fill="#472b29" d="M69.5,44c-0.276,0-0.5-0.224-0.5-0.5v-8c0-2.481-2.019-4.5-4.5-4.5h-29c-2.481,0-4.5,2.019-4.5,4.5 v4c0,0.276-0.224,0.5-0.5,0.5S30,39.776,30,39.5v-4c0-3.032,2.468-5.5,5.5-5.5h29c3.032,0,5.5,2.468,5.5,5.5v8 C70,43.776,69.776,44,69.5,44z"/><path fill="#472b29" d="M69.5,58c-0.276,0-0.5-0.224-0.5-0.5v-4c0-0.276,0.224-0.5,0.5-0.5s0.5,0.224,0.5,0.5v4 C70,57.776,69.776,58,69.5,58z"/><path fill="#472b29" d="M64.5,70h-29c-3.032,0-5.5-2.468-5.5-5.5v-5c0-0.276,0.224-0.5,0.5-0.5s0.5,0.224,0.5,0.5v5 c0,2.481,2.019,4.5,4.5,4.5h29c2.481,0,4.5-2.019,4.5-4.5v-4c0-0.276,0.224-0.5,0.5-0.5s0.5,0.224,0.5,0.5v4 C70,67.532,67.532,70,64.5,70z"/><path fill="#fdfcef" d="M57.629,37.967c0,0-2.409-1.405-6.424-1.405s-9.235,2.008-9.235,7.428s5.22,6.826,6.223,7.227 c1.004,0.401,5.621,1.405,5.621,4.617c0,3.212-3.614,3.614-5.019,3.614s-3.814-0.402-6.223-1.606 c-0.402,1.004-1.205,3.814-1.205,3.814s3.212,1.807,7.428,1.807s9.837-2.208,9.837-7.428s-3.413-6.826-5.822-7.829 c-2.409-1.004-6.023-2.008-6.023-4.417c0-2.409,2.61-3.212,4.417-3.212s3.212,0.402,5.22,1.205 C56.826,40.576,57.629,37.967,57.629,37.967z"/><path fill="#472b29" d="M48.796,63.962c-4.298,0-7.537-1.795-7.673-1.871c-0.202-0.113-0.299-0.351-0.235-0.573 c0.033-0.115,0.814-2.847,1.221-3.862c0.052-0.13,0.155-0.232,0.286-0.282c0.132-0.048,0.276-0.042,0.401,0.021 c2.29,1.146,4.601,1.554,6,1.554c1.06,0,4.519-0.225,4.519-3.114c0-2.419-3.174-3.449-4.698-3.944 c-0.258-0.083-0.467-0.152-0.608-0.209c-0.076-0.03-0.178-0.066-0.3-0.11c-1.543-0.554-6.238-2.241-6.238-7.58 c0-5.447,5.046-7.928,9.734-7.928c4.104,0,6.573,1.413,6.677,1.474c0.201,0.117,0.294,0.356,0.226,0.579 c0,0-0.806,2.616-1.208,3.825c-0.044,0.131-0.14,0.237-0.265,0.295c-0.125,0.059-0.268,0.063-0.396,0.011 c-1.894-0.758-3.257-1.169-5.034-1.169c-1.354,0-3.916,0.566-3.916,2.712c0,1.723,2.45,2.676,4.611,3.517 c0.384,0.149,0.756,0.294,1.104,0.438c2.142,0.893,6.129,2.555,6.129,8.291C59.132,61.184,53.807,63.962,48.796,63.962z M41.964,61.396c0.925,0.444,3.587,1.565,6.832,1.565c3.609,0,9.336-1.881,9.336-6.928c0-4.679-2.846-6.256-5.514-7.367 c-0.341-0.143-0.705-0.284-1.081-0.43c-2.339-0.91-5.249-2.042-5.249-4.449c0-2.551,2.548-3.712,4.916-3.712 c1.764,0,3.181,0.38,4.909,1.046c0.305-0.941,0.711-2.247,0.913-2.898c-0.788-0.363-2.858-1.162-5.822-1.162 c-3.021,0-8.734,1.448-8.734,6.928c0,4.636,4.052,6.092,5.577,6.64c0.136,0.049,0.248,0.089,0.332,0.123 c0.127,0.051,0.315,0.111,0.546,0.186c1.612,0.523,5.39,1.75,5.39,4.896c0,3.033-2.851,4.114-5.519,4.114 c-1.409,0-3.664-0.378-5.943-1.418C42.552,59.402,42.155,60.737,41.964,61.396z"/></svg>