<svg width="83" height="36" viewBox="0 0 83 36" fill="none" xmlns="http://www.w3.org/2000/svg">
<g clip-path="url(#clip0_1458_20869)">
<path d="M32.6351 9.26465V23.3686L34.4401 23.3825V16.663H38.7943V14.8896H34.4401V11.038H40.1034V9.26465H32.6351ZM43.3552 12.1326C44.0028 12.1326 44.5402 11.6061 44.5402 10.9411C44.5402 10.276 44.0166 9.74956 43.3552 9.74956C42.7076 9.74956 42.1702 10.276 42.1702 10.9411C42.1702 11.6061 42.6938 12.1326 43.3552 12.1326ZM42.432 13.9059V23.3825H44.2371V13.9059H42.432ZM50.9337 13.6289C48.5362 13.6289 46.8689 15.6655 46.8689 18.09C46.8689 20.5146 48.5362 22.5512 50.9337 22.5512C52.0361 22.5512 52.9317 22.1356 53.5931 21.429V22.6898C53.6069 24.2553 52.3668 25.5577 50.796 25.5715C50.7822 25.5715 50.7822 25.5715 50.7684 25.5715C50.1897 25.5715 49.6247 25.3499 49.17 25.0312L48.2606 26.6106C50.4101 28.0099 53.2762 27.3865 54.6541 25.2252C55.1364 24.4632 55.3982 23.5903 55.3982 22.6898V13.9198H53.5931V14.7649C52.9317 14.0583 52.0361 13.6289 50.9337 13.6289ZM48.674 18.09C48.674 16.5799 49.8176 15.4022 51.1404 15.4022C52.4632 15.4022 53.5931 16.5937 53.5931 18.09C53.5931 19.6002 52.4494 20.764 51.1404 20.764C49.8176 20.764 48.674 19.5863 48.674 18.09ZM61.9019 15.4022C60.8272 15.4161 59.9591 16.3028 59.9728 17.3835V23.3686H58.1678V13.8921H59.9728V14.7649C60.524 14.0306 61.3783 13.615 62.3015 13.6289C63.5692 13.6289 64.5475 14.2523 65.0987 15.2221C65.7325 14.2385 66.8073 13.6427 67.9647 13.6289C70.0178 13.6289 71.2993 15.2914 71.2993 17.3557V23.3686H69.508V17.3835C69.508 16.3028 68.6537 15.4161 67.5789 15.4022C66.5042 15.4161 65.6361 16.3028 65.6498 17.3835V23.3686H63.831V17.3835C63.831 16.3028 62.9767 15.4161 61.9019 15.4022ZM80.9171 14.9728C80.0904 14.0999 78.9329 13.615 77.7341 13.6289C75.0472 13.6289 73.1457 15.9149 73.1457 18.6304C73.1457 21.3597 75.0472 23.6319 77.7341 23.6319C78.9329 23.6319 80.0766 23.147 80.9171 22.288V23.3686H82.7222V13.8921H80.9171V14.9728ZM74.9508 18.6304C74.9508 16.8293 76.3287 15.3884 77.9408 15.3884C79.5392 15.4022 80.9171 16.8293 80.9171 18.6304C80.9171 20.4315 79.5392 21.8585 77.927 21.8585C76.3424 21.8723 74.9508 20.4453 74.9508 18.6304Z" fill="#272A2E"></path>
<path d="M9.32032 18.0069C9.32032 15.4299 11.401 13.3379 13.9639 13.3379C16.5268 13.3379 18.6074 15.4299 18.6074 18.0069C18.6074 20.5839 16.5268 22.6759 13.9639 22.6759C11.401 22.6759 9.32032 20.5839 9.32032 18.0069Z" fill="#272A2E"></path>
<path d="M0.0475464 27.3306C0.0475464 24.7537 2.12819 22.6616 4.69111 22.6616H9.33468V27.3306C9.33468 29.9076 7.25403 31.9996 4.69111 31.9996C2.12819 31.9996 0.0475464 29.9076 0.0475464 27.3306Z" fill="#9EA6B3"></path>
<path d="M9.32032 4.01386V13.338H13.9639C16.5268 13.338 18.6074 11.246 18.6074 8.66901C18.6074 6.09205 16.5268 4 13.9639 4H9.32032V4.01386Z" fill="#9EA6B3"></path>
<path d="M0.0475464 8.68256C0.0475464 11.2595 2.12819 13.3516 4.69111 13.3516H9.33468V4.02741H4.69111C2.12819 4.01356 0.0475464 6.1056 0.0475464 8.68256Z" fill="#272A2E"></path>
<path d="M0.0475464 18.0073C0.0475464 20.5842 2.12819 22.6763 4.69111 22.6763H9.33468V13.3521H4.69111C2.12819 13.3383 0.0475464 15.4303 0.0475464 18.0073Z" fill="#6E7683"></path>
</g>
<defs>
<clipPath id="clip0_1458_20869">
<rect width="82.6746" height="36" fill="white" transform="translate(0.0475464)"></rect>
</clipPath>
</defs>
</svg>
