<svg width="58" height="36" viewBox="0 0 58 36" fill="none" xmlns="http://www.w3.org/2000/svg">
<g clip-path="url(#clip0_1458_20841)">
<path d="M36.7426 13.0926C36.0074 13.8459 36.0074 15.0667 36.7426 15.82L39.3226 18.4613C39.4893 18.6515 40.1891 19.5367 39.9321 20.7338C39.919 20.7954 39.9306 20.8625 39.9772 20.9104C40.0466 20.9813 40.1593 20.9813 40.2282 20.9104L40.9716 20.1492L41.9223 19.1754C42.8688 18.2072 42.8688 16.6372 41.9223 15.6686L39.4064 13.0926C38.6709 12.3402 37.4781 12.3402 36.7426 13.0926" fill="#272A2E"></path>
<path d="M52.1964 28.9225C52.932 28.1701 52.932 26.9488 52.1964 26.1959L49.6159 23.5547C49.4497 23.364 48.75 22.4793 49.0065 21.2817C49.02 21.2202 49.0079 21.153 48.9613 21.1051C48.8919 21.0346 48.7793 21.0346 48.7104 21.1051L47.9674 21.8663L47.0162 22.8405C46.0702 23.8083 46.0702 25.3783 47.0162 26.347L49.5325 28.9225C50.2677 29.6758 51.4604 29.6758 52.1964 28.9225Z" fill="#272A2E"></path>
<path d="M36.7349 26.2034L49.5455 13.0966C49.9171 12.7171 50.4082 12.5297 50.897 12.5358C51.3724 12.5424 51.8444 12.7288 52.2043 13.098C52.5693 13.4709 52.7518 13.9636 52.7523 14.4559C52.7532 14.9505 52.5702 15.4446 52.2038 15.8194L39.3932 28.9262C39.0273 29.3005 38.5455 29.4879 38.0636 29.487C37.5818 29.487 37.0995 29.2996 36.734 28.9257C36.3783 28.5598 36.1949 28.0811 36.186 27.6C36.1776 27.0947 36.3606 26.5871 36.7349 26.2034Z" fill="#272A2E"></path>
<path d="M3.46033 16.2509H2.18844C1.33741 16.2509 0.647461 15.5447 0.647461 14.6739C0.647461 13.8031 1.33741 13.0974 2.18844 13.0974H3.46033V11.9101C3.46033 10.0679 3.91751 8.69457 4.77226 7.82006C5.62609 6.94556 6.81604 6.5083 8.40218 6.5083C9.06652 6.5083 9.62519 6.55813 10.1233 6.6421C10.858 6.76512 11.392 7.42429 11.392 8.18739C11.391 9.10478 10.6257 9.82641 9.73226 9.74669C9.56932 9.73268 9.40172 9.72435 9.22621 9.72435C7.82256 9.72435 7.09025 10.5051 7.09025 12.2229V13.1282H9.83562C10.6778 13.1282 11.3608 13.8274 11.3608 14.6898C11.3608 15.5522 10.6778 16.251 9.83562 16.251H7.15124V27.6023C7.15124 28.6451 6.32488 29.4911 5.30625 29.4911C4.28669 29.4911 3.46033 28.6451 3.46033 27.6023V16.2509Z" fill="#272A2E"></path>
<path d="M15.2565 6.6958C16.2756 6.6958 17.1019 7.54187 17.1019 8.58466V27.6023C17.1019 28.6456 16.2756 29.4916 15.2565 29.4916C14.2374 29.4916 13.411 28.6456 13.411 27.6023V8.58466C13.411 7.54187 14.2374 6.6958 15.2565 6.6958Z" fill="#272A2E"></path>
<path d="M31.6778 19.7175C31.7733 19.7175 31.8492 19.6313 31.8371 19.5339C31.5424 17.1868 30.149 15.3767 27.77 15.3767C25.5689 15.3767 24.006 17.0693 23.6182 19.5283C23.6033 19.6262 23.6796 19.7175 23.7765 19.7175H31.6778ZM19.9305 20.9351V20.7095C19.9305 15.5557 24.4529 11.4918 29.4036 12.4311C33.4656 13.2021 35.5182 16.9309 35.5182 21.1538C35.5177 21.7407 35.0531 22.2152 34.48 22.2152L23.8109 22.2157C23.7122 22.2157 23.6354 22.3099 23.6531 22.4091C24.1084 24.973 25.9366 26.4003 28.2579 26.4003C29.6243 26.4003 30.6918 26.0036 31.6872 25.254C32.2668 24.8163 33.0582 24.8308 33.5964 25.3193C34.2784 25.9388 34.2789 27.0469 33.5736 27.637C32.1923 28.7922 30.4404 29.4919 28.1974 29.4919C23.5302 29.4919 19.9305 26.0251 19.9305 20.9352" fill="#272A2E"></path>
<path d="M56.1604 27.5638C56.1604 27.4002 56.0426 27.3181 55.808 27.3181H55.3894V27.8411H55.7917C55.909 27.8411 55.9998 27.8183 56.0636 27.7722C56.1278 27.7261 56.1604 27.6571 56.1604 27.5638V27.5638ZM56.1366 28.402C56.1366 28.2939 56.1254 28.2127 56.1031 28.1577C56.0803 28.1031 56.0426 28.0668 55.9891 28.0454C55.9365 28.0244 55.8587 28.0146 55.7577 28.0146H55.3894V28.6546H55.2032V27.1415H55.8489C56.0002 27.1415 56.1208 27.1765 56.2111 27.2473C56.301 27.3172 56.3462 27.4193 56.3462 27.5536C56.3462 27.651 56.3238 27.7303 56.2768 27.7927C56.2302 27.8552 56.1623 27.8976 56.0719 27.9214V27.928C56.1623 27.9555 56.226 27.9998 56.2638 28.0599C56.3005 28.12 56.3192 28.2207 56.3192 28.361C56.3192 28.5041 56.3355 28.602 56.3671 28.6552H56.1809C56.1669 28.6356 56.1562 28.6006 56.1483 28.553C56.1404 28.5055 56.1367 28.4556 56.1367 28.4025L56.1366 28.402ZM56.8606 27.8864C56.8606 27.6809 56.8118 27.4907 56.7131 27.3154C56.6158 27.1401 56.4817 26.9993 56.3127 26.8963C56.1432 26.7923 55.9556 26.7406 55.7512 26.7406C55.5524 26.7406 55.369 26.7915 55.2 26.8945C55.0305 26.997 54.8965 27.1359 54.7973 27.3121C54.6981 27.4869 54.6483 27.679 54.6483 27.8864C54.6483 28.092 54.6972 28.2827 54.795 28.4584C54.8941 28.6341 55.0273 28.7731 55.1963 28.8775C55.3648 28.9805 55.551 29.0327 55.7545 29.0327C55.957 29.0327 56.1432 28.9805 56.3127 28.8775C56.4817 28.7731 56.6158 28.6341 56.7131 28.4584C56.8118 28.2827 56.8606 28.092 56.8606 27.8864ZM54.4621 27.8864C54.4621 27.644 54.5217 27.4212 54.6399 27.2189C54.7582 27.0152 54.916 26.8558 55.1148 26.7392C55.3136 26.6227 55.5282 26.564 55.7577 26.564C55.99 26.564 56.2051 26.6232 56.4021 26.7425C56.5999 26.8605 56.7564 27.0212 56.8723 27.2236C56.9887 27.4259 57.0464 27.6464 57.0464 27.8864C57.0464 28.1172 56.99 28.3344 56.8774 28.5381C56.7652 28.7409 56.6106 28.9036 56.4146 29.0266C56.2177 29.1483 55.9989 29.2094 55.7577 29.2094C55.5208 29.2094 55.3038 29.1497 55.1064 29.0308C54.909 28.9125 54.7526 28.7516 54.6367 28.5484C54.5203 28.3451 54.4621 28.1246 54.4621 27.8864Z" fill="#272A2E"></path>
</g>
<defs>
<clipPath id="clip0_1458_20841">
<rect width="56.3989" height="36" fill="white" transform="translate(0.647461)"></rect>
</clipPath>
</defs>
</svg>
