<svg width="79" height="36" viewBox="0 0 79 36" fill="none" xmlns="http://www.w3.org/2000/svg">
<g clip-path="url(#clip0_1458_20934)">
<path d="M18.8032 33.7288V25.6982L18.9697 25.5317H20.9773L21.1438 25.6982V33.7288L20.9773 33.8952H18.9697L18.8032 33.7288Z" fill="#6E7683"></path>
<path d="M18.8032 10.3022V2.27142L18.9697 2.10498H20.9773L21.1438 2.27142V10.3022L20.9773 10.4686H18.9697L18.8032 10.3022Z" fill="#6E7683"></path>
<path d="M11.8933 28.0828H11.6176L10.2367 26.7019V26.4262L12.8243 23.8359L14.2859 23.8386L14.4809 24.031V25.4926L11.8933 28.0828Z" fill="#6E7683"></path>
<path d="M10.2367 9.64686V9.36858L11.6176 7.99023H11.8933L14.4809 10.5779V12.0368L14.2859 12.2345H12.8243L10.2367 9.64686Z" fill="#6E7683"></path>
<path d="M1.15008 16.8271H12.5279L12.6943 16.9936V19.0039L12.5279 19.1703H1.15008L0.983643 19.0039V16.9936L1.15008 16.8271Z" fill="#6E7683"></path>
<path d="M68.1269 16.8296H78.8335L78.9999 16.9961V19.0037L78.8335 19.1702H67.2894L67.123 19.0037L67.9578 16.9961L68.1242 16.8296H68.1269Z" fill="#6E7683"></path>
<path d="M23.7392 22.1846H21.7315L21.565 22.0182V17.3188C21.565 16.4814 21.2374 15.8339 20.2283 15.8131C19.7082 15.8 19.1152 15.8131 18.4807 15.8391L18.3845 15.9353V17.8337V22.0156L18.218 22.182H16.2103L16.0439 22.0156V13.9848L16.2103 13.8184H20.7276C22.483 13.8184 23.9056 15.2409 23.9056 16.9964V22.0156L23.7392 22.182V22.1846Z" fill="#272A2E"></path>
<path d="M33.463 18.6685L33.2966 18.8349H28.1057L27.9392 19.0014C27.9392 19.3368 28.2747 20.3407 29.614 20.3407C30.1159 20.3407 30.6179 20.1742 30.7869 19.8388L30.9534 19.6723H32.9611L33.1275 19.8388C32.9611 20.8426 32.1236 22.351 29.6114 22.351C26.7663 22.351 25.427 20.3433 25.427 17.9975C25.427 15.6517 26.7663 13.644 29.445 13.644C32.1236 13.644 33.463 15.6517 33.463 17.9975V18.6659V18.6685ZM30.9507 16.9937C30.9507 16.8272 30.7843 15.6543 29.445 15.6543C28.1057 15.6543 27.9392 16.8272 27.9392 16.9937L28.1057 17.1601H30.7843L30.9507 16.9937Z" fill="#272A2E"></path>
<path d="M38.1493 19.672C38.1493 20.0075 38.3157 20.1739 38.6513 20.1739H40.1571L40.3235 20.3404V22.0152L40.1571 22.1816H38.6513C37.1454 22.1816 35.806 21.5107 35.806 19.6694V15.9869L35.6396 15.8205H34.4669L34.3005 15.654V13.9792L34.4669 13.8128H35.6396L35.806 13.6463V12.1406L35.9724 11.9741H37.9802L38.1466 12.1406V13.6463L38.313 13.8128H40.1543L40.3207 13.9792V15.654L40.1543 15.8205H38.313L38.1466 15.9869V19.6694L38.1493 19.672Z" fill="#272A2E"></path>
<path d="M44.3439 22.1843H42.3361L42.1697 22.0178V10.6323L42.3361 10.4658H44.3439L44.5103 10.6323V22.0152L44.3439 22.1817V22.1843Z" fill="#272A2E"></path>
<path d="M48.8639 12.4735H46.8561L46.6897 12.3071V10.6323L46.8561 10.4658H48.8639L49.0303 10.6323V12.3071L48.8639 12.4735ZM48.8639 22.1843H46.8561L46.6897 22.0178V13.9819L46.8561 13.8154H48.8639L49.0303 13.9819V22.0178L48.8639 22.1843Z" fill="#272A2E"></path>
<path d="M56.7334 10.6324V12.3072L56.567 12.4737H55.0612C54.7256 12.4737 54.5592 12.6401 54.5592 12.9756V13.6466L54.7256 13.813H56.4006L56.567 13.9794V15.6543L56.4006 15.8207H54.7256L54.5592 15.9871V22.0128L54.3928 22.1792H52.3851L52.2187 22.0128V15.9871L52.0523 15.8207H50.8792L50.7128 15.6543V13.9794L50.8792 13.813H52.0523L52.2187 13.6466V12.9756C52.2187 11.1343 53.5581 10.4634 55.0639 10.4634H56.5694L56.7361 10.6298L56.7334 10.6324Z" fill="#272A2E"></path>
<path d="M62.9256 22.3507C62.2545 24.0255 61.5861 25.0294 59.2431 25.0294H58.4056L58.2392 24.8629V23.1881L58.4056 23.0217H59.2431C60.0803 23.0217 60.247 22.8552 60.4159 22.3533V22.1869L57.7373 15.6567V13.9819L57.9037 13.8154H59.4095L59.5759 13.9819L61.5837 19.6747H61.7501L63.7579 13.9819L63.9243 13.8154H65.4301L65.5965 13.9819V15.6567L62.9176 22.3533L62.9256 22.3507Z" fill="#272A2E"></path>
</g>
<defs>
<clipPath id="clip0_1458_20934">
<rect width="78.0163" height="36" fill="white" transform="translate(0.983643)"></rect>
</clipPath>
</defs>
</svg>
