<svg width="65" height="36" viewBox="0 0 65 36" fill="none" xmlns="http://www.w3.org/2000/svg">
<path d="M7.20608 29.3463C5.29915 29.2709 3.73899 28.7513 2.51907 27.7863C2.28626 27.602 1.73148 27.0493 1.54536 26.8161C1.05066 26.1968 0.714338 25.594 0.490012 24.9252C-0.200273 22.8665 0.154992 20.1649 1.50617 17.2001C2.66307 14.6618 4.44821 12.1443 7.56266 8.65759C8.02143 8.14453 9.38763 6.64404 9.39645 6.64404C9.39971 6.64404 9.32526 6.77247 9.23155 6.92886C8.42175 8.27945 7.72886 9.87032 7.35139 11.2476C6.74502 13.4575 6.81816 15.354 7.56559 16.8245C8.08118 17.8377 8.9651 18.7152 9.95906 19.2003C11.6991 20.0492 14.2467 20.1194 17.3579 19.4058C17.5721 19.3563 28.1863 16.5508 40.9451 13.1711C53.704 9.79099 64.1448 7.0277 64.1464 7.02998C64.15 7.0329 34.504 19.6642 19.1143 26.2173C16.6771 27.2548 16.0253 27.5168 14.8795 27.9174C11.9506 28.9415 9.32689 29.4302 7.20608 29.3463Z" fill="#272A2E"></path>
</svg>
