<svg width="61" height="36" viewBox="0 0 61 36" fill="none" xmlns="http://www.w3.org/2000/svg">
<path d="M32.5236 3.10177C32.3266 3.13208 32.1372 3.85743 31.7566 4.23526C31.4782 4.50797 31.1306 4.49093 30.946 4.82804C30.8759 4.95398 30.8986 5.16894 30.8191 5.37537C30.6638 5.78823 30.1165 5.82516 30.1165 6.27496C30.1146 6.76073 30.5729 6.85354 30.9697 7.19822C31.2793 7.47567 31.3096 7.66695 31.6846 7.80141C32.0047 7.91032 32.481 7.55427 32.9099 7.6821C33.2622 7.78722 33.5993 7.86297 33.6788 8.2247C33.7489 8.55802 33.6741 9.07505 33.247 9.01539C33.1031 8.99929 32.4791 8.78907 31.7121 8.87051C30.7869 8.97562 29.7311 9.27769 29.6279 10.3089C29.571 10.8856 30.2841 11.5655 30.9725 11.4272C31.4488 11.3335 31.2234 10.772 31.4829 10.4992C31.8228 10.1498 33.7489 11.7189 35.5396 11.7189C36.2933 11.7189 36.8539 11.5286 37.4107 10.9452C37.4628 10.9007 37.5262 10.8051 37.6067 10.7994C37.6825 10.8051 37.8151 10.8799 37.8586 10.9121C39.3008 12.0711 40.3907 14.3959 45.6907 14.4233C46.436 14.4271 47.2854 14.7832 47.9785 15.4157C48.5969 15.9877 48.9586 16.8768 49.3099 17.7793C49.8402 19.1334 50.7909 20.4506 52.2322 21.9164C52.3107 21.995 53.4973 22.9174 53.592 22.9865C53.6071 22.9959 53.6942 23.2043 53.6639 23.3207C53.6289 24.1995 53.5011 26.7553 55.4063 26.8708C55.8722 26.8945 55.75 26.5668 55.75 26.3415C55.7491 25.8964 55.6676 25.4542 55.9025 24.9987C56.2235 24.3718 55.2216 24.083 55.251 22.728C55.2718 21.7176 54.4234 21.8899 53.9925 21.1201C53.7444 20.6741 53.5238 20.4373 53.5399 19.8919C53.6365 16.8219 52.8865 14.8049 52.5124 14.3097C52.2208 13.9357 51.9793 13.787 52.2464 13.6137C53.8363 12.5636 54.197 11.5863 54.197 11.5863C55.0427 9.5987 55.803 7.78343 56.8513 6.98421C57.0625 6.81945 57.6041 6.4151 57.9365 6.25602C58.9147 5.79486 59.4298 5.51551 59.7139 5.23901C60.1637 4.80058 60.5188 3.88679 60.0879 3.33283C59.552 2.64914 58.6249 3.19173 58.2158 3.43415C55.2927 5.16894 54.8618 8.22943 53.8495 9.98695C53.0418 11.3913 51.7284 12.4225 50.5542 12.5067C49.6735 12.5721 48.7247 12.3941 47.7797 11.9793C45.4815 10.9718 44.2239 9.67067 43.9275 9.44057C43.3101 8.96425 38.5167 4.25893 34.6334 4.0667C34.6334 4.0667 34.1514 3.10177 34.0302 3.08568C33.7461 3.04969 33.4554 3.66236 33.247 3.73338C33.051 3.79872 32.7215 3.06958 32.5236 3.10177Z" fill="#272A2E"></path>
<path d="M15.4277 31.1842C15.0622 31.1757 14.7516 30.8755 14.7516 30.5043L14.7525 18.3911H10.7603V31.7439C10.7603 32.3982 11.2905 32.9323 11.9411 32.9323H18.9191C19.5743 32.9323 20.098 32.3982 20.098 31.7439V18.3911H16.1095L16.1057 30.5043C16.1057 30.8755 15.7951 31.1757 15.4277 31.1842Z" fill="#272A2E"></path>
<path d="M28.7946 18.3911H22.7522C22.0373 18.3911 21.4549 18.9725 21.4549 19.695V32.9323H25.451V20.7897C25.4538 20.4176 25.7549 20.1231 26.1261 20.1231C26.4992 20.1231 26.7984 20.4109 26.807 20.7793V32.9323H30.7869V20.7793C30.7917 20.4109 31.0909 20.1231 31.4631 20.1231C31.8324 20.1231 32.1373 20.4176 32.1401 20.7897V32.9323H36.1362V19.695C36.1362 18.9725 35.5529 18.3911 34.8379 18.3911H28.7946Z" fill="#272A2E"></path>
<path d="M5.41759 20.8153C5.42044 20.4109 5.0909 20.1231 4.74148 20.1231H4.06348V27.4779H4.74148C5.09374 27.4779 5.42044 27.1976 5.41759 26.7952V20.8153ZM8.09648 29.278H4.06348V32.9323H0.0730896V18.3911H8.12204C8.84266 18.3911 9.40514 18.9763 9.40514 19.7007V27.9684C9.40514 28.6938 8.82088 29.278 8.09648 29.278Z" fill="#272A2E"></path>
<path d="M49.8298 29.6813C49.0278 29.6813 48.3545 30.3745 48.3545 31.2144C48.3545 32.0572 49.0278 32.7446 49.8554 32.7446C50.6764 32.7446 51.3411 32.0572 51.3411 31.2144C51.3411 30.3726 50.6764 29.6813 49.8554 29.6813H49.8298ZM51.6271 31.2097C51.6271 32.1973 50.8355 33.0003 49.8554 33.0003C48.8649 33.0003 48.0695 32.203 48.0695 31.2097C48.0695 30.2353 48.8649 29.4209 49.826 29.4209C50.8355 29.4209 51.6271 30.2106 51.6271 31.2097Z" fill="#272A2E"></path>
<path d="M49.6708 31.095C49.9482 31.095 50.0941 30.9965 50.0941 30.7996C50.0941 30.6244 49.953 30.5344 49.6831 30.5344H49.6036V31.095H49.6708ZM50.6925 32.2446H50.2162L49.6036 31.4293V32.2446H49.2144V30.1831H49.6234C50.1793 30.1831 50.4747 30.3933 50.4747 30.7948C50.4747 31.0628 50.3005 31.3005 50.0571 31.3715L50.0287 31.3819L50.6925 32.2446Z" fill="#272A2E"></path>
<path d="M42.8358 27.4808V20.785C42.8263 20.4147 42.528 20.1306 42.1559 20.1306C41.7875 20.1306 41.4826 20.4261 41.4798 20.7954V27.4808H42.8358ZM42.8358 32.9323V29.2818H41.4798V32.9323H37.4913V19.695C37.4913 18.9725 38.0736 18.3911 38.7886 18.3911H45.527C46.2438 18.3911 46.8262 18.9725 46.8262 19.695V32.9323H42.8358Z" fill="#272A2E"></path>
</svg>
