<svg width="127" height="36" viewBox="0 0 127 36" fill="none" xmlns="http://www.w3.org/2000/svg">
<g clip-path="url(#clip0_1458_20919)">
<path d="M18.8832 25.5275C19.9054 25.5203 20.9183 25.3321 21.875 24.9716L21.986 25.1662C21.3033 26.1057 19.3828 28.0571 16.6629 28.0571C13.2881 28.0571 10.8957 25.6387 10.8957 22.064C10.8735 18.2114 13.9763 15.604 16.7184 15.604C19.6825 15.604 21.0535 18.2169 21.7141 20.2517V20.3629H14.3038V20.7465C14.3038 23.793 15.9802 25.5275 18.8832 25.5275ZM14.5203 19.0953H18.2282C18.0894 17.472 17.1569 17.0328 16.563 17.0328C15.8136 17.0328 14.9366 17.6888 14.5203 19.0953Z" fill="#272A2E"></path>
<path d="M42.8516 11.4788V25.9332L44.7999 27.64V27.8067H36.6458V27.64L38.6219 25.9332V14.6643L32.283 26.4892H31.8722L25.722 14.6921V25.911L27.6703 27.6177V27.7845H21.9642V27.6177L23.9125 25.911V12.1348C23.7737 11.9402 22.3472 9.87766 22.2473 9.71643V9.58301H27.5205L33.4653 20.8519L39.2824 9.58301H44.7499V9.71643L42.8516 11.4788Z" fill="#272A2E"></path>
<path d="M63.4054 15.52V18.2163C64.5155 16.6764 65.5202 15.5478 66.0975 15.5478C66.8399 15.5958 67.5712 15.7532 68.2678 16.0148L67.1133 19.495C66.4016 19.0705 65.606 18.8068 64.782 18.7222C64.2805 18.7173 63.794 18.8929 63.4109 19.217V26.1329L65.7977 27.6173V27.7841H58.1932V27.6173L59.7308 26.2163V19.217L58.2487 18.0329V17.8661L63.4054 15.52Z" fill="#272A2E"></path>
<path d="M98.9967 7.8208V17.3052C100.207 16.3156 101.495 15.5984 102.788 15.5984C104.875 15.5984 107.29 17.2662 107.29 20.9354C107.29 25.8555 103.582 27.9737 100.457 27.9737C99.3464 27.9737 97.0817 27.7791 95.4054 27.7791H95.2611V11.8458L93.6403 10.556V10.3892L98.9967 7.8208ZM98.9967 18.3225V25.9667C99.4111 26.2897 99.9264 26.4552 100.451 26.4337C102.211 26.4337 103.443 24.6714 103.443 22.064C103.443 19.4566 102.399 17.8555 100.562 17.8555C100.004 17.8406 99.4557 18.0041 98.9967 18.3225Z" fill="#272A2E"></path>
<path d="M113.206 7.8208V26.2391L114.744 27.6123V27.7791H107.988V27.6123L109.526 26.2391V11.8458L107.905 10.556V10.3892L113.206 7.8208Z" fill="#272A2E"></path>
<path d="M123.336 25.5282C124.359 25.521 125.371 25.3328 126.328 24.9723L126.439 25.1669C125.779 26.1008 123.858 28.0522 121.116 28.0522C117.741 28.0522 115.349 25.6339 115.349 22.0592C115.349 18.212 118.452 15.5991 121.194 15.5991C124.158 15.5991 125.529 18.212 126.189 20.2468V20.358H118.796V20.7416C118.796 23.7937 120.461 25.5282 123.336 25.5282ZM119.001 19.096H122.681C122.543 17.4726 121.61 17.0334 121.016 17.0334C120.289 17.0334 119.412 17.6895 119.001 19.096Z" fill="#272A2E"></path>
<path d="M5.78342 15.52V18.2163C6.89357 16.6764 7.89825 15.5478 8.47552 15.5478C9.21795 15.5958 9.94925 15.7532 10.6459 16.0148L9.48575 19.495C8.77408 19.0705 7.97845 18.8068 7.15445 18.7222C6.65301 18.7173 6.16648 18.8929 5.78342 19.217V26.1329L8.17023 27.6173V27.7841H0.565735V27.6173L2.10329 26.2163V19.217L0.621242 18.0329V17.8661L5.78342 15.52Z" fill="#272A2E"></path>
<path d="M78.8817 24.26L77.0833 21.7194H73.5364V7.87646L68.241 10.4171V10.6006L69.8618 11.8904V26.2392L68.352 27.6124V27.7791H74.9463V27.6124L73.5197 26.2392V22.5811L75.568 25.6388C76.7503 27.4011 77.5718 28.1127 79.4535 28.1127C80.2222 28.0925 80.986 27.9824 81.7293 27.7847V27.6179C80.6299 26.6356 79.6717 25.5056 78.8817 24.26Z" fill="#272A2E"></path>
<path d="M77.6773 20.0019C78.925 20.0019 79.9364 18.9889 79.9364 17.7392C79.9364 16.4896 78.925 15.4766 77.6773 15.4766C76.4296 15.4766 75.4181 16.4896 75.4181 17.7392C75.4181 18.9889 76.4296 20.0019 77.6773 20.0019Z" fill="#272A2E"></path>
<path d="M51.0116 25.9612C49.7904 25.9612 49.1243 25.2441 49.1243 24.2934C49.1002 24.0387 49.1692 23.7838 49.3186 23.5762C49.4851 23.4928 51.3724 22.9147 52.3437 22.6923C52.3437 24.0988 52.3437 25.2607 52.3437 25.6721C51.9365 25.8683 51.4912 25.9727 51.0393 25.9779L51.0116 25.9612ZM57.4338 27.6457L55.9573 26.2336C55.9573 26.2336 56.0405 19.7958 56.0405 18.5672C56.0405 17.5165 55.0969 15.5596 52.0718 15.5596C48.7968 15.5596 46.682 18.1558 45.9326 19.0676V19.2343L48.8579 20.185C48.7463 19.6909 48.7463 19.1781 48.8579 18.684C48.9597 18.3006 49.1853 17.9618 49.4996 17.7204C49.8139 17.479 50.1992 17.3487 50.5953 17.3497C50.8265 17.3453 51.0562 17.387 51.2712 17.4724C51.4861 17.5578 51.682 17.6851 51.8473 17.8471C52.0126 18.009 52.1441 18.2023 52.2341 18.4157C52.3241 18.629 52.3708 18.8582 52.3715 19.0898V21.3803L46.6764 22.759C46.1491 22.898 45.5941 23.8375 45.5941 24.9105C45.5941 26.6228 47.065 28.1405 49.313 28.1405C50.1401 28.1405 51.3779 27.4956 52.3382 26.6395V27.7847H57.4004V27.6124L57.4338 27.6457Z" fill="#272A2E"></path>
<path d="M87.4742 25.9612C86.253 25.9612 85.5869 25.2441 85.5869 24.2934C85.5628 24.0387 85.6319 23.7838 85.7812 23.5762C85.9477 23.4928 87.835 22.9147 88.8064 22.6923C88.8064 24.0988 88.8064 25.2607 88.8064 25.6721C88.3991 25.8683 87.9538 25.9727 87.5019 25.9779L87.4742 25.9612ZM93.8964 27.6457L92.4199 26.2336C92.4199 26.2336 92.5031 19.7958 92.5031 18.5672C92.5031 17.5165 91.5595 15.5596 88.5344 15.5596C85.2594 15.5596 83.1446 18.1558 82.3953 19.0676V19.2343L85.326 20.2239C85.2145 19.7298 85.2145 19.217 85.326 18.7229C85.4278 18.3395 85.6535 18.0007 85.9678 17.7593C86.2821 17.5179 86.6674 17.3876 87.0634 17.3886C87.2946 17.3842 87.5244 17.4259 87.7394 17.5113C87.9543 17.5967 88.1502 17.7241 88.3155 17.886C88.4808 18.048 88.6123 18.2412 88.7023 18.4546C88.7923 18.6679 88.839 18.8971 88.8397 19.1287V21.4192L83.1724 22.7979C82.645 22.9369 82.09 23.8764 82.09 24.9494C82.09 26.6617 83.5609 28.1794 85.809 28.1794C86.636 28.1794 87.8738 27.5345 88.8341 26.6784V27.8236H93.8964V27.6124V27.6457Z" fill="#272A2E"></path>
</g>
<defs>
<clipPath id="clip0_1458_20919">
<rect width="125.873" height="36" fill="white" transform="translate(0.565735)"></rect>
</clipPath>
</defs>
</svg>
