<svg width="85" height="36" viewBox="0 0 85 36" fill="none" xmlns="http://www.w3.org/2000/svg">
<g clip-path="url(#clip0_1458_20899)">
<path d="M45.6604 10.2963H48.6159V26.0621L38.6324 16.7992V25.5842H35.6769V9.85838L45.6604 19.1349V10.2963ZM31.0039 17.9671C31.0039 22.5187 27.2898 26.2217 22.7243 26.2217C18.1577 26.2217 14.4436 22.5187 14.4436 17.9671C14.4436 13.4154 18.1577 9.7124 22.7243 9.7124C27.2898 9.7124 31.0039 13.4154 31.0039 17.9671ZM27.9694 17.9671C27.9694 15.0475 25.6124 12.6719 22.7106 12.6719C19.8088 12.6719 17.4655 15.0475 17.4655 17.9671C17.4655 20.8866 19.8215 23.2622 22.7106 23.2622C25.6124 23.2622 27.9684 20.8866 27.9684 17.9671H27.9694ZM9.39865 18.0994C8.61262 17.5018 7.57476 17.025 6.04379 16.5335C3.04824 15.5778 3.04824 14.8353 3.04824 14.4636C3.04824 13.6139 3.99337 12.7381 5.59072 12.7381C6.93519 12.7381 7.9741 13.4018 8.35974 13.6937L8.57258 13.8534L10.956 12.2466L10.6894 11.942C10.6104 11.8485 8.77277 9.7124 5.57808 9.7124C4.04605 9.7124 2.63625 10.2039 1.61104 11.0924C0.585835 11.9819 0 13.2033 0 14.4762C0 15.8309 0.599531 16.9715 1.77015 17.861C2.55618 18.4575 3.59404 18.9353 5.125 19.4258C8.12056 20.3689 8.12056 21.125 8.12056 21.4968C8.12056 22.3464 7.17542 23.2223 5.57808 23.2223C4.2336 23.2223 3.1947 22.5586 2.80905 22.2666L2.59622 22.107L0.212836 23.7138L0.479417 24.0184C0.559495 24.1108 2.39708 26.2343 5.57808 26.2343C7.10905 26.2343 8.51989 25.7439 9.54511 24.8543C10.5703 23.9648 11.1551 22.7308 11.1551 21.4706C11.1551 20.1294 10.5703 19.0026 9.39865 18.0994ZM53.3152 18.0332C53.3152 13.4816 57.0294 9.77859 61.5959 9.77859C66.1614 9.77859 69.8756 13.4816 69.8756 18.0332C69.8756 22.5848 66.1614 26.2879 61.5959 26.2879C57.0294 26.2879 53.3152 22.5848 53.3152 18.0332ZM56.3371 18.0332C56.3371 20.9528 58.6931 23.3284 61.5822 23.3284C64.484 23.3284 66.8273 20.9528 66.8273 18.0332C66.8273 15.1137 64.4714 12.737 61.5822 12.737C58.6931 12.737 56.3371 15.1126 56.3371 18.0322V18.0332ZM74.9079 17.8862C75.6928 18.4848 76.7307 18.9616 78.2627 19.4531C81.2572 20.4088 81.2572 21.1513 81.2572 21.5231C81.2572 22.3727 80.3121 23.2486 78.7147 23.2486C77.3703 23.2486 76.3324 22.5848 75.9457 22.2929L75.7329 22.1343L73.3505 23.7401L73.6161 24.0446C73.6962 24.1381 75.5337 26.2606 78.7158 26.2606C80.2457 26.2606 81.6566 25.7701 82.6818 24.8806C83.707 23.9921 84.2928 22.7707 84.2928 21.4968C84.2928 20.1431 83.6933 19.0015 82.5227 18.1131C81.7366 17.5155 80.6988 17.0376 79.1678 16.5472C76.1722 15.5915 76.1722 14.848 76.1722 14.4762C76.1722 13.6276 77.1174 12.7517 78.7147 12.7517C80.0592 12.7517 81.0981 13.4155 81.4837 13.7074L81.6966 13.866L84.08 12.2602L83.8134 11.9557C83.7333 11.8622 81.8957 9.73974 78.7147 9.73974C77.1838 9.73974 75.7729 10.2302 74.7477 11.1187C73.7225 12.0082 73.1377 13.2422 73.1377 14.5035C73.1504 15.8572 73.7362 16.9977 74.9079 17.8873V17.8862Z" fill="#272A2E"></path>
</g>
<defs>
<clipPath id="clip0_1458_20899">
<rect width="84.2928" height="36" fill="white"></rect>
</clipPath>
</defs>
</svg>
